<svg xmlns="http://www.w3.org/2000/svg" viewBox="0 0 120 28">
  <!-- P -->
  <path d="M0 4h7.2c1.7 0 3 .5 3.9 1.5s1.4 2.3 1.4 3.8c0 1.6-.5 2.9-1.4 3.9S9 14.6 7.2 14.6H3.6v7.2H0V4zm3.6 7.6h3.2c.8 0 1.4-.3 1.8-.8s.6-1.1.6-1.8c0-.8-.2-1.4-.6-1.8s-1-.7-1.8-.7H3.6v5.1z" fill="#fafafa"/>
  <!-- O -->
  <path d="M21 3.6c2.2 0 4 .8 5.4 2.3s2.1 3.4 2.1 5.7c0 2.3-.7 4.2-2.1 5.7s-3.2 2.3-5.4 2.3c-2.2 0-4-.8-5.4-2.3s-2.1-3.4-2.1-5.7c0-2.3.7-4.2 2.1-5.7S18.8 3.6 21 3.6zm0 3.2c-1.2 0-2.1.5-2.8 1.4s-1.1 2.1-1.1 3.4c0 1.4.4 2.5 1.1 3.4s1.7 1.4 2.8 1.4c1.2 0 2.1-.5 2.8-1.4s1.1-2.1 1.1-3.4c0-1.4-.4-2.5-1.1-3.4S22.2 6.8 21 6.8z" fill="#fafafa"/>
  <!-- L -->
  <path d="M32 4h3.6v14.6h8.2v3.2H32V4z" fill="#fafafa"/>
  <!-- E -->
  <path d="M47 4h11.6v3.2H50.6v4h7.2v3.1h-7.2v4.3h8.2v3.2H47V4z" fill="#fafafa"/>
  <!-- Z -->
  <path d="M62 4h12.6v3l-8.4 11.6h8.6v3.2H61.6v-3l8.4-11.6H62V4z" fill="#fafafa"/>
</svg>
